# xmcd CD database file
#
# Track frame offsets:
#	150
#	17475
#	33784
#	47610
#	60999
#	77707
#	90398
#	103959
#	113607
#	126214
#	139913
#	148939
#	162785
#	175733
#	189126
#	201930
#	211974
#	226596
#
# Disc length: 3151 seconds
#
# Revision: 0
# Processed by: cddbd v1.4PL0 Copyright (c) Steve Scherf et al.
# Submitted via: CDex 1.50
#
DISCID=e20c4d12
DTITLE=Barbra Streisand - The Best (PandaMusic)
DYEAR=1900
DGENRE=Blues
TTITLE0=Women In Love
TTITLE1=Cry Me A River
TTITLE2=Happy Days Are Here Again
TTITLE3=My Man
TTITLE4=People
TTITLE5=Supper Time
TTITLE6=My Lord and Master
TTITLE7=On A Clear Day
TTITLE8=I've Got No Strings
TTITLE9=Go To Sleep
TTITLE10=Gotta Move
TTITLE11=Yesterdays
TTITLE12=Love With All The Trimmings
TTITLE13=When In Rome
TTITLE14=Fine And Dandy
TTITLE15=I'm All Smiles
TTITLE16=Don't Like Goodbyes
TTITLE17=Love Is A Bore
EXTD=
EXTT0=
EXTT1=
EXTT2=
EXTT3=
EXTT4=
EXTT5=
EXTT6=
EXTT7=
EXTT8=
EXTT9=
EXTT10=
EXTT11=
EXTT12=
EXTT13=
EXTT14=
EXTT15=
EXTT16=
EXTT17=
PLAYORDER=
